<svg xmlns="http://www.w3.org/2000/svg" viewBox="0 0 252.32 28.93"><defs><style>.cls-1{fill:#e3f2fd;}</style></defs><g id="Layer_2" data-name="Layer 2"><g id="Layer_1-2" data-name="Layer 1"><path class="cls-1" d="M24,12.19a1.1,1.1,0,0,1-.7.56l-4.9,1.78-.25.1.06.22c.4,1.22.81,2.43,1.21,3.64a.69.69,0,0,1-.61,1,1.31,1.31,0,0,1-.43-.08l-3.75-1.25c0,.09-.07.17-.1.26l-1.83,5a.72.72,0,0,1-1,.52.79.79,0,0,1-.44-.52c-.56-1.55-1.13-3.11-1.7-4.66-.07-.21-.15-.41-.23-.63l-2.18.73-1.66.55a.72.72,0,0,1-1-1c.43-1.27.85-2.55,1.28-3.84l-.94-.35L.57,12.7A.73.73,0,0,1,0,12a.74.74,0,0,1,.57-.71L5.71,9.43l.15-.06c-.23-.69-.45-1.37-.68-2s-.39-1.2-.6-1.8a.72.72,0,0,1,1-1L9.37,5.86l.09-.24q.9-2.46,1.79-4.94A1.09,1.09,0,0,1,11.81,0h.38a1.1,1.1,0,0,1,.56.7q.88,2.46,1.79,4.92a2.34,2.34,0,0,0,.09.24l3.82-1.27a.72.72,0,0,1,1,1c-.25.73-.49,1.47-.73,2.2l-.54,1.62.26.1,4.9,1.78a1.1,1.1,0,0,1,.7.56ZM12,2.79a2.54,2.54,0,0,0-.1.25c-.74,2-1.47,4-2.2,6.05a.94.94,0,0,1-.62.62c-1.64.58-3.28,1.18-4.92,1.78L2.78,12l.31.12c2,.73,4,1.46,6,2.17a1,1,0,0,1,.64.63c.72,2,1.46,4,2.19,6,0,.07.06.13.1.24a2.51,2.51,0,0,0,.1-.26q1.11-3,2.2-6a.86.86,0,0,1,.56-.58c1.79-.64,3.57-1.3,5.36-2l1-.37-.2-.08c-2-.74-4.05-1.48-6.09-2.21a1,1,0,0,1-.64-.64c-.72-2-1.46-4-2.19-6C12.07,3,12,2.9,12,2.79ZM6.33,6.33l.86,2.56,1.15-.41a.29.29,0,0,0,.12-.1c.14-.39.28-.79.43-1.19Zm0,11.34,2.56-.86c-.15-.4-.28-.79-.42-1.17a.22.22,0,0,0-.09-.1l-1.19-.43ZM16.81,8.89l.85-2.55-2.55.85c.14.4.28.79.42,1.16a.25.25,0,0,0,.13.12Zm0,6.22-1.17.42a.28.28,0,0,0-.1.09c-.14.39-.28.79-.43,1.19l2.55.85Z"/><path class="cls-1" d="M32.31,22.57l3.51-21H48.75l-.51,3.18H38.76l-.93,5.58H46.2l-.51,3.12H37.32l-1,5.94h9.54l-.54,3.18Z"/><path class="cls-1" d="M47.34,22.57,54.93,14,60.3,7.57h4l-7.24,8.28-5.67,6.72Zm10.8,0-3.3-6.72L50.28,7.57h3.94L57.45,14l4.65,8.58Z"/><path class="cls-1" d="M62.94,28.57l3.51-21H69.6l-.27,2.76-3,18.24ZM74.28,7.21a5.87,5.87,0,0,1,3.31.9,5.53,5.53,0,0,1,2.06,2.5,7.6,7.6,0,0,1,.48,3.77,11,11,0,0,1-.74,3.3,9.29,9.29,0,0,1-1.63,2.73,7.62,7.62,0,0,1-2.39,1.84,6.76,6.76,0,0,1-3,.68,5.09,5.09,0,0,1-3.11-.9,4.84,4.84,0,0,1-1.72-2.51,9.38,9.38,0,0,1-.33-3.67,13.39,13.39,0,0,1,.75-3.74,8.31,8.31,0,0,1,1.59-2.7,6.74,6.74,0,0,1,2.2-1.65A6.12,6.12,0,0,1,74.28,7.21Zm-1,3.06a3.9,3.9,0,0,0-1.94.48A4.91,4.91,0,0,0,69.84,12a6.29,6.29,0,0,0-1,1.8,6.74,6.74,0,0,0-.37,2,4.06,4.06,0,0,0,.79,2.86,3,3,0,0,0,2.42,1.1,4.25,4.25,0,0,0,2-.47,5.06,5.06,0,0,0,1.56-1.24,6,6,0,0,0,1-1.77,6.23,6.23,0,0,0,.41-2,4.07,4.07,0,0,0-.86-2.91A3.15,3.15,0,0,0,73.26,10.27Z"/><path class="cls-1" d="M81.64,22.57l3.54-21h3.36L85,22.57Z"/><path class="cls-1" d="M95.9,22.93a7.53,7.53,0,0,1-4-1.05A6.06,6.06,0,0,1,89.4,19a7.6,7.6,0,0,1-.34-4.27,9.25,9.25,0,0,1,1.56-3.92,8.44,8.44,0,0,1,3-2.64,8.32,8.32,0,0,1,3.93-.94,7.43,7.43,0,0,1,4,1A6.05,6.05,0,0,1,104,11.15a7.63,7.63,0,0,1,.35,4.28,9.21,9.21,0,0,1-1.56,3.91,8.5,8.5,0,0,1-3,2.64A8.22,8.22,0,0,1,95.9,22.93ZM96,19.84a4.57,4.57,0,0,0,2.31-.6A5.31,5.31,0,0,0,100,17.57a6.2,6.2,0,0,0,1-2.47,5.3,5.3,0,0,0-.17-2.52,3.27,3.27,0,0,0-1.24-1.68,3.66,3.66,0,0,0-2.13-.6,4.62,4.62,0,0,0-2.3.6,5.22,5.22,0,0,0-1.78,1.66,6.25,6.25,0,0,0-1,2.48,5,5,0,0,0,.15,2.52,3.32,3.32,0,0,0,1.27,1.68A3.69,3.69,0,0,0,96,19.84Z"/><path class="cls-1" d="M105.91,22.57l2.52-15h3.36l-2.52,15Zm3.54-8a9.18,9.18,0,0,1,1.61-4,7.55,7.55,0,0,1,2.79-2.34,7.41,7.41,0,0,1,3.22-.76l-.48,3.21a9.07,9.07,0,0,0-2.64.39,5.48,5.48,0,0,0-2.19,1.23,3.86,3.86,0,0,0-1.14,2.25Z"/><path class="cls-1" d="M123.46,22.93a7.34,7.34,0,0,1-3.87-1.16,6,6,0,0,1-2.3-2.89,7.86,7.86,0,0,1-.31-4.17,9.25,9.25,0,0,1,1.64-4,8.35,8.35,0,0,1,7.21-3.48,6.52,6.52,0,0,1,3.66,1.14,5.53,5.53,0,0,1,2,2.94,9.2,9.2,0,0,1,.11,4.47h-11.4a5.21,5.21,0,0,0,.27,2.37,3.12,3.12,0,0,0,1.23,1.53,3.77,3.77,0,0,0,2,.57,4.77,4.77,0,0,0,2.58-.65,4.87,4.87,0,0,0,1.77-1.75l2.73,1.41a7.12,7.12,0,0,1-1.95,2.13,8.13,8.13,0,0,1-2.55,1.23A8.94,8.94,0,0,1,123.46,22.93Zm-2.73-9.51h7.8a4.54,4.54,0,0,0-.75-2.64,2.77,2.77,0,0,0-2.34-1,4.28,4.28,0,0,0-2.85,1A6.06,6.06,0,0,0,120.73,13.42Z"/><path class="cls-1" d="M141,22.57l3.51-21h6.81a8.72,8.72,0,0,1,3.66.69,4.34,4.34,0,0,1,2.17,2.05,5.31,5.31,0,0,1,.32,3.35,5.62,5.62,0,0,1-3.12,4.14,4.44,4.44,0,0,1,2,2,5.15,5.15,0,0,1,.3,3.08,6.18,6.18,0,0,1-2.49,4.2,8.66,8.66,0,0,1-5.19,1.47Zm3.93-3.12h4a4.72,4.72,0,0,0,2.91-.86,3.37,3.37,0,0,0,1.32-2.44,2.24,2.24,0,0,0-.71-2.12,4.06,4.06,0,0,0-2.71-.76H145.9Zm1.53-9.06h3.69a4.07,4.07,0,0,0,2.73-.87A3.54,3.54,0,0,0,154,7.15a2.11,2.11,0,0,0-.65-2,3.88,3.88,0,0,0-2.53-.69H147.4Z"/><path class="cls-1" d="M163.07,15.28A6.83,6.83,0,0,0,163,18a2.1,2.1,0,0,0,.93,1.37,3.07,3.07,0,0,0,1.57.39,3.78,3.78,0,0,0,2.88-1.13,5.94,5.94,0,0,0,1.5-3.28l1.26.06a11.69,11.69,0,0,1-1.36,4.06A7.27,7.27,0,0,1,167.42,22a5.86,5.86,0,0,1-3.18.89,4.59,4.59,0,0,1-4-1.7q-1.25-1.69-.68-5.11l.12-.84Zm-3.42.45L161,7.57h3.33l-1.29,7.71Zm9.24,6.84.27-2.76,2-12.24h3.36l-2.52,15Z"/><path class="cls-1" d="M175.73,22.57l3.54-21h3.36l-3.54,21Z"/><path class="cls-1" d="M188.22,28.93a12.49,12.49,0,0,1-2.88-.3,11.23,11.23,0,0,1-2.1-.69,10.07,10.07,0,0,1-1.29-.69l1.62-2.58a10.25,10.25,0,0,0,1,.54,9.37,9.37,0,0,0,1.56.54,8.42,8.42,0,0,0,2.12.24,5.29,5.29,0,0,0,3.45-1.2,5.83,5.83,0,0,0,1.89-3.72l2.28-13.5h3.33L197,21a11,11,0,0,1-1.59,4.32,7.6,7.6,0,0,1-3,2.67A9.28,9.28,0,0,1,188.22,28.93Zm.75-6.66a6.1,6.1,0,0,1-3.54-1,5.31,5.31,0,0,1-2-2.76,8.1,8.1,0,0,1-.18-4.08,9.83,9.83,0,0,1,1.47-3.83,7.86,7.86,0,0,1,2.67-2.5,7.06,7.06,0,0,1,3.54-.9,5.19,5.19,0,0,1,3.3,1,4.83,4.83,0,0,1,1.69,2.74,9.88,9.88,0,0,1,.05,4,11.42,11.42,0,0,1-1.37,3.84,7.43,7.43,0,0,1-2.38,2.55A5.84,5.84,0,0,1,189,22.27Zm1-2.82a4,4,0,0,0,2.13-.6,5.19,5.19,0,0,0,1.66-1.64,6,6,0,0,0,.89-2.41,4.84,4.84,0,0,0-.11-2.39,3.31,3.31,0,0,0-1.12-1.63,3.1,3.1,0,0,0-1.95-.6,4.3,4.3,0,0,0-2.22.6,5.45,5.45,0,0,0-1.73,1.62,5.62,5.62,0,0,0-.91,2.37,4.81,4.81,0,0,0,.12,2.41,3.28,3.28,0,0,0,1.2,1.67A3.42,3.42,0,0,0,190,19.45Z"/><path class="cls-1" d="M206.58,22.93a5.91,5.91,0,0,1-3.3-.9,5.47,5.47,0,0,1-2.06-2.52,8,8,0,0,1-.49-3.75,12,12,0,0,1,.75-3.3,9.06,9.06,0,0,1,1.62-2.73,7.58,7.58,0,0,1,2.4-1.85,6.8,6.8,0,0,1,3-.67,5.06,5.06,0,0,1,3.12.9,4.87,4.87,0,0,1,1.71,2.49,9.42,9.42,0,0,1,.33,3.69A12.34,12.34,0,0,1,213,18a8.86,8.86,0,0,1-1.58,2.7,6.67,6.67,0,0,1-2.21,1.65A6.21,6.21,0,0,1,206.58,22.93Zm1-3.06a3.91,3.91,0,0,0,1.92-.48A4.68,4.68,0,0,0,211,18.1a6.48,6.48,0,0,0,1-1.8,7.47,7.47,0,0,0,.41-2,4,4,0,0,0-.81-2.87,3,3,0,0,0-2.43-1.09,4.11,4.11,0,0,0-2,.46A5.22,5.22,0,0,0,205.64,12a5.47,5.47,0,0,0-1,1.77,6,6,0,0,0-.41,2,4,4,0,0,0,.87,2.91A3.2,3.2,0,0,0,207.63,19.87Zm3.6,2.7.3-2.79,2-12.21h3.36l-2.52,15Z"/><path class="cls-1" d="M218.1,22.57l2.52-15H224l-2.52,15Zm3.54-8a9.17,9.17,0,0,1,1.6-4A7.55,7.55,0,0,1,226,8.27a7.45,7.45,0,0,1,3.23-.76l-.48,3.21a9.07,9.07,0,0,0-2.64.39A5.48,5.48,0,0,0,224,12.34a3.86,3.86,0,0,0-1.14,2.25Z"/><path class="cls-1" d="M228.69,22.57l2.55-15h3.33l-2.55,15Zm5-17.85a1.93,1.93,0,0,1-1.38-.59,1.87,1.87,0,0,1-.6-1.39,1.83,1.83,0,0,1,.6-1.38,2,2,0,0,1,2.78,0,1.85,1.85,0,0,1,.58,1.38,1.89,1.89,0,0,1-.58,1.39A1.92,1.92,0,0,1,233.7,4.72Z"/><path class="cls-1" d="M242,22.93a5.91,5.91,0,0,1-3.3-.9,5.39,5.39,0,0,1-2-2.52,7.92,7.92,0,0,1-.5-3.75,12,12,0,0,1,.75-3.3,9.06,9.06,0,0,1,1.62-2.73,7.58,7.58,0,0,1,2.4-1.85,6.8,6.8,0,0,1,3-.67,5.06,5.06,0,0,1,3.12.9,4.87,4.87,0,0,1,1.71,2.49,9.42,9.42,0,0,1,.33,3.69,12.34,12.34,0,0,1-.74,3.73,8.67,8.67,0,0,1-1.58,2.7,6.67,6.67,0,0,1-2.21,1.65A6.21,6.21,0,0,1,242,22.93ZM243,19.87a3.91,3.91,0,0,0,1.92-.48,4.83,4.83,0,0,0,1.49-1.29,6.76,6.76,0,0,0,1-1.8,7.46,7.46,0,0,0,.4-2,4,4,0,0,0-.81-2.87,3,3,0,0,0-2.43-1.09,4.14,4.14,0,0,0-2,.46A5.22,5.22,0,0,0,241,12,5.47,5.47,0,0,0,240,13.78a6,6,0,0,0-.41,2,4,4,0,0,0,.87,2.91A3.2,3.2,0,0,0,243,19.87Zm3.6,2.7.3-2.79,2-12.21h3.36l-2.52,15Z"/></g></g></svg>